<?xml version="1.0" encoding="UTF-8" ?>
<!DOCTYPE svg PUBLIC "-//W3C//DTD SVG 1.1//EN" "http://www.w3.org/Graphics/SVG/1.1/DTD/svg11.dtd">
<svg width="1200pt" height="1200pt" viewBox="0 0 1200 1200" version="1.1" xmlns="http://www.w3.org/2000/svg">
<g id="#3f9ff0ff">
<path fill="#3f9ff0" opacity="1.00" d=" M 585.53 30.79 C 603.22 28.52 621.30 31.41 638.08 37.16 C 654.48 42.78 669.09 52.26 684.08 60.76 C 796.77 125.82 909.46 190.88 1022.15 255.94 C 1033.63 262.73 1045.55 268.89 1056.29 276.85 C 1073.65 289.53 1088.09 306.52 1096.60 326.35 C 1105.36 345.94 1107.83 367.69 1107.38 388.98 C 1107.39 530.98 1107.38 672.98 1107.39 814.98 C 1107.59 837.55 1103.56 860.57 1092.76 880.59 C 1083.58 898.21 1069.52 912.98 1053.28 924.29 C 1046.36 929.19 1038.96 933.34 1031.63 937.58 C 923.62 999.94 815.61 1062.30 707.60 1124.66 C 692.17 1133.50 676.85 1142.53 661.35 1151.25 C 641.77 1162.29 619.54 1169.01 596.96 1169.01 C 573.83 1168.76 551.26 1161.31 531.35 1149.79 C 405.77 1077.30 280.20 1004.79 154.62 932.29 C 138.61 923.05 123.93 911.20 112.65 896.47 C 101.62 882.05 94.25 864.97 90.78 847.18 C 88.35 835.27 87.71 823.08 88.00 810.95 C 88.00 668.63 88.00 526.31 88.00 383.99 C 87.71 369.11 89.46 354.12 93.76 339.85 C 99.88 318.92 112.13 299.89 128.50 285.52 C 138.72 276.02 150.75 268.81 162.83 261.96 C 276.61 196.28 390.38 130.58 504.17 64.90 C 518.70 56.77 532.70 47.62 547.93 40.84 C 559.92 35.78 572.54 31.98 585.53 30.79 M 571.04 330.67 C 562.31 331.28 553.54 331.99 545.00 334.03 C 483.35 345.46 428.41 387.00 399.62 442.58 C 386.71 444.26 373.97 447.34 361.64 451.50 C 300.83 471.43 250.72 520.75 229.21 580.94 C 213.82 622.57 212.00 669.06 223.68 711.86 C 230.99 738.48 243.57 763.66 260.53 785.46 C 292.20 826.54 339.42 855.35 390.49 864.36 C 414.69 869.11 439.47 867.82 463.98 868.00 C 468.35 868.14 472.65 867.20 476.89 866.30 C 489.79 862.49 500.48 852.29 505.44 839.87 C 510.95 826.72 509.94 810.89 502.25 798.81 C 493.01 783.43 473.54 774.88 456.02 779.26 C 449.50 781.06 442.75 781.56 436.02 781.90 C 413.35 781.94 390.56 776.45 370.90 765.03 C 343.02 749.25 321.57 722.59 311.94 692.06 C 301.38 658.98 304.56 621.62 321.10 591.02 C 335.46 563.95 359.79 542.25 388.49 531.43 C 410.88 522.68 435.85 520.83 459.39 525.56 C 462.96 499.18 475.62 474.20 494.36 455.33 C 512.60 436.87 536.74 424.25 562.41 420.28 C 598.48 414.10 637.38 425.49 664.07 450.56 C 613.49 461.68 567.49 492.19 537.30 534.28 C 520.59 557.40 508.64 583.97 502.56 611.83 C 493.24 654.22 497.19 699.56 514.50 739.42 C 528.18 771.44 550.24 799.73 577.58 821.24 C 615.26 850.90 663.04 867.43 711.00 867.11 C 723.76 867.19 736.59 867.79 749.28 866.05 C 756.38 865.53 763.48 863.46 769.46 859.52 C 780.34 852.60 787.34 839.90 787.20 826.99 C 787.26 816.74 782.90 806.59 775.61 799.41 C 768.56 792.55 758.91 788.18 749.01 788.16 C 741.50 787.53 734.29 790.06 726.92 790.94 C 712.55 792.18 697.96 791.84 683.86 788.65 C 656.41 783.05 630.89 768.51 611.87 747.95 C 595.57 730.42 584.00 708.46 579.11 685.02 C 570.62 646.59 580.41 604.69 605.11 574.03 C 623.64 550.59 650.14 533.57 679.16 526.51 C 696.70 521.97 715.12 521.79 733.04 523.94 C 743.41 525.76 753.69 528.31 763.43 532.35 C 791.92 543.67 816.32 565.01 831.28 591.79 C 842.33 611.60 848.63 634.27 848.15 657.03 C 848.55 676.27 844.07 695.49 836.00 712.90 C 828.29 726.36 830.48 743.76 838.59 756.53 C 842.79 763.49 849.82 767.85 855.99 772.85 C 874.97 787.60 893.88 802.44 912.86 817.18 C 919.28 821.92 925.14 827.49 932.11 831.46 C 946.34 839.26 965.62 835.47 975.80 822.81 C 985.69 811.35 986.51 793.35 977.82 780.99 C 974.42 775.81 969.31 772.21 964.50 768.47 C 947.65 755.27 930.71 742.19 913.92 728.91 C 921.15 710.09 925.22 690.03 926.27 669.89 C 927.72 656.50 926.29 643.04 925.07 629.70 C 918.78 580.96 894.65 534.84 858.33 501.72 C 834.84 479.98 806.33 463.69 775.73 454.37 C 755.18 408.63 717.97 370.49 672.39 349.45 C 653.94 340.72 634.13 335.08 613.95 332.08 C 599.72 330.57 585.34 329.18 571.04 330.67 Z" />
</g>
</svg>
