<?xml version="1.0" encoding="UTF-8" ?>
<!DOCTYPE svg PUBLIC "-//W3C//DTD SVG 1.1//EN" "http://www.w3.org/Graphics/SVG/1.1/DTD/svg11.dtd">
<svg width="1200pt" height="1200pt" viewBox="0 0 1200 1200" version="1.1" xmlns="http://www.w3.org/2000/svg">
<g id="#ffffffff">
<path fill="#ffffff" opacity="1.00" d=" M 585.58 30.82 C 609.07 28.13 632.99 33.57 654.05 44.00 C 667.13 50.67 679.59 58.46 692.38 65.65 C 803.10 129.59 913.83 193.50 1024.55 257.44 C 1034.60 263.35 1044.95 268.79 1054.42 275.62 C 1070.53 287.04 1084.29 302.00 1093.33 319.62 C 1104.28 340.57 1107.85 364.57 1107.32 387.99 C 1107.31 531.00 1107.34 674.01 1107.31 817.02 C 1107.30 838.64 1103.21 860.56 1093.09 879.81 C 1084.96 895.61 1072.93 909.23 1058.89 920.05 C 1050.77 926.42 1041.85 931.63 1032.91 936.73 C 910.34 1007.50 787.78 1078.27 665.20 1149.02 C 648.22 1158.90 629.46 1166.20 609.81 1168.17 C 584.50 1171.10 558.81 1164.51 536.58 1152.52 C 521.76 1144.38 507.27 1135.68 492.58 1127.30 C 387.32 1066.54 282.06 1005.76 176.80 944.99 C 162.11 936.28 146.68 928.59 133.46 917.66 C 118.72 905.66 106.43 890.42 98.92 872.90 C 90.98 855.08 87.94 835.42 88.00 816.01 C 88.00 671.34 87.99 526.66 88.01 381.99 C 87.89 356.22 94.02 329.92 108.59 308.39 C 120.21 290.95 136.65 277.17 154.71 266.77 C 273.48 198.17 392.28 129.61 511.05 61.03 C 526.53 52.22 541.65 42.41 558.68 36.81 C 567.40 33.87 576.41 31.74 585.58 30.82 M 479.63 358.56 C 445.81 378.34 417.68 407.79 399.52 442.51 C 372.30 446.17 345.85 455.43 322.16 469.32 C 269.70 499.67 231.50 553.44 220.16 612.97 C 209.76 664.73 219.01 720.35 246.67 765.45 C 266.50 798.31 295.49 825.56 329.46 843.41 C 359.38 859.28 393.12 867.65 426.97 867.97 C 440.66 867.96 454.36 868.13 468.05 867.89 C 490.70 866.76 509.20 845.35 508.91 823.04 C 509.50 809.70 503.20 796.44 492.93 788.02 C 483.43 780.06 470.33 776.45 458.12 778.76 C 454.67 779.22 451.39 780.47 447.94 780.88 C 428.04 783.27 407.60 780.44 388.87 773.42 C 353.79 760.29 325.35 730.88 313.20 695.48 C 303.79 668.84 303.51 639.06 312.21 612.20 C 322.22 580.73 344.91 553.56 374.07 538.07 C 399.91 524.12 430.69 519.77 459.42 525.73 C 461.85 507.98 468.35 490.83 478.06 475.77 C 496.61 446.71 527.75 425.81 561.90 420.49 C 598.23 413.87 636.87 425.79 664.20 450.37 C 622.12 459.73 583.11 482.28 553.84 513.93 C 528.44 541.26 510.38 575.42 502.44 611.89 C 496.49 639.13 495.95 667.55 500.96 694.98 C 506.70 726.62 520.03 756.84 539.43 782.49 C 558.60 807.89 583.58 828.85 611.90 843.36 C 635.82 855.74 662.10 863.30 688.84 866.26 C 703.84 867.48 718.91 867.43 733.94 867.32 C 745.33 866.67 757.49 866.65 767.64 860.73 C 778.73 854.54 786.23 842.60 787.26 829.99 C 788.21 817.78 782.93 805.30 773.56 797.43 C 766.96 791.87 758.52 788.27 749.84 788.12 C 743.09 787.15 736.55 789.50 729.93 790.36 C 692.76 795.46 653.72 784.24 624.93 760.17 C 598.77 738.66 581.02 706.90 577.26 673.18 C 573.90 646.33 578.94 618.49 591.73 594.63 C 608.11 563.49 637.23 539.39 670.82 528.96 C 690.76 522.43 712.19 521.34 732.92 524.06 C 761.60 528.44 788.81 542.11 809.22 562.78 C 831.28 584.87 845.49 614.90 847.71 646.09 C 849.66 669.11 845.58 692.61 835.63 713.48 C 831.42 720.90 830.28 729.88 831.74 738.23 C 833.20 749.14 838.73 759.69 847.58 766.38 C 871.37 784.98 895.19 803.53 918.99 822.10 C 925.44 827.14 931.86 832.92 940.16 834.55 C 957.85 839.47 978.06 827.88 982.62 810.08 C 985.49 799.91 983.55 788.46 977.21 779.97 C 973.60 774.82 968.24 771.39 963.43 767.50 C 946.96 754.65 930.47 741.83 914.04 728.93 C 930.95 683.94 930.96 632.98 915.16 587.68 C 905.64 560.48 890.45 535.30 870.91 514.12 C 845.26 486.23 812.08 465.31 775.82 454.30 C 761.25 422.16 738.70 393.64 710.54 372.34 C 688.16 355.32 662.30 342.85 635.00 336.13 C 582.92 323.12 525.84 331.11 479.63 358.56 Z" />
</g>
</svg>
